<svg height="32px" width="32px" version="1.1" id="Layer_1" xmlns="http://www.w3.org/2000/svg" xmlns:xlink="http://www.w3.org/1999/xlink" viewBox="0 0 512 512" xml:space="preserve" fill="#000000" style="--darkreader-inline-fill: #000000;" data-darkreader-inline-fill=""><g id="SVGRepo_bgCarrier" stroke-width="0"></g><g id="SVGRepo_tracerCarrier" stroke-linecap="round" stroke-linejoin="round"></g><g id="SVGRepo_iconCarrier"> <path style="fill: rgb(215, 222, 237); --darkreader-inline-fill: #c0d1e3;" d="M425.634,260.414c-7.079,0-13.888,1.143-20.288,3.209c0.945-10.101,1.596-18.466,2.013-24.375 c0.373-5.291-3.682-9.729-8.81-9.729h-87.673v264.828h7.019c23.265,0,40.714-24.575,53.732-58.748 c57.975-12.295,120.213-58.643,120.213-108.977C491.841,290.112,462.143,260.414,425.634,260.414z M406.531,394.803 c-9.82,5.132-21.299-3.519-18.859-14.326c5.331-23.614,9.347-48.019,12.341-70.153c1.736-12.833,12.266-23.29,25.216-23.425 c0.131-0.001,0.264-0.002,0.395-0.002c8.736-0.002,17.012,3.886,23.735,9.465C487.084,327.665,452.092,370.993,406.531,394.803z" data-darkreader-inline-fill=""></path> <path style="fill: rgb(239, 242, 250); --darkreader-inline-fill: #cdddef;" d="M226.87,35.31c-1.508,0-3.039-0.388-4.439-1.203c-4.211-2.457-5.633-7.862-3.177-12.073 c2.28-3.914,3.345-8.108,3.345-13.207c0-4.875,3.953-8.828,8.828-8.828s8.828,3.953,8.828,8.828c0,8.242-1.879,15.47-5.75,22.103 C232.862,33.741,229.909,35.31,226.87,35.31z" data-darkreader-inline-fill=""></path> <path style="fill: rgb(228, 234, 246); --darkreader-inline-fill: #c6d9ec;" d="M196.116,211.862c-4.875,0-8.828-3.953-8.828-8.828c0-20.061,11.38-30.487,20.518-38.862 c8.267-7.573,14.793-13.551,14.793-25.845c0-12.306-6.53-18.289-14.793-25.866c-9.142-8.384-20.518-18.815-20.518-38.883 c0-9.725,2.659-18.151,8.129-25.763c2.845-3.957,8.366-4.857,12.319-2.017c3.961,2.845,4.862,8.362,2.017,12.319 c-3.328,4.629-4.81,9.397-4.81,15.462c0,12.306,6.53,18.289,14.793,25.866c9.142,8.384,20.518,18.815,20.518,38.883 c0,20.061-11.38,30.487-20.518,38.862c-8.267,7.573-14.793,13.551-14.793,25.845C204.943,207.91,200.991,211.862,196.116,211.862z" data-darkreader-inline-fill=""></path> <path style="fill: rgb(239, 242, 250); --darkreader-inline-fill: #cdddef;" d="M252.111,97.133c-3.345,0-6.548-1.918-8.03-5.16c-2.578-5.63-3.828-11.647-3.828-18.397 c0-4.875,3.953-8.828,8.828-8.828s8.828,3.953,8.828,8.828c0,4.163,0.728,7.78,2.225,11.052c2.03,4.436,0.082,9.673-4.353,11.699 C254.59,96.875,253.339,97.133,252.111,97.133z" data-darkreader-inline-fill=""></path> <path style="fill: rgb(228, 234, 246); --darkreader-inline-fill: #c6d9ec;" d="M249.081,211.862c-4.875,0-8.828-3.953-8.828-8.828c0-20.061,11.38-30.487,20.518-38.862 c8.267-7.573,14.793-13.551,14.793-25.845c0-7.009-1.992-12.332-6.655-17.802c-3.164-3.706-2.724-9.28,0.988-12.444 c3.699-3.172,9.276-2.733,12.444,0.988c7.423,8.698,10.879,17.996,10.879,29.259c0,20.061-11.379,30.487-20.518,38.862 c-8.267,7.573-14.793,13.551-14.793,25.845C257.909,207.91,253.956,211.862,249.081,211.862z" data-darkreader-inline-fill=""></path> <path style="fill: rgb(239, 242, 250); --darkreader-inline-fill: #cdddef;" d="M146.185,97.138c-3.345,0-6.543-1.909-8.03-5.151c-2.578-5.63-3.832-11.651-3.832-18.41 c0-4.875,3.953-8.828,8.828-8.828s8.828,3.953,8.828,8.828c0,4.168,0.728,7.785,2.229,11.057c2.03,4.431,0.082,9.673-4.349,11.702 C148.667,96.884,147.417,97.138,146.185,97.138z" data-darkreader-inline-fill=""></path> <path style="fill: rgb(228, 234, 246); --darkreader-inline-fill: #c6d9ec;" d="M143.15,211.862c-4.875,0-8.828-3.953-8.828-8.828c0-20.061,11.38-30.487,20.518-38.862 c8.267-7.573,14.793-13.551,14.793-25.845c0-7.026-2.004-12.366-6.698-17.849c-3.168-3.706-2.737-9.28,0.966-12.448 c3.702-3.164,9.28-2.733,12.448,0.966c7.466,8.724,10.94,18.044,10.94,29.332c0,20.061-11.38,30.487-20.518,38.862 c-8.267,7.573-14.793,13.551-14.793,25.845C151.978,207.91,148.025,211.862,143.15,211.862z" data-darkreader-inline-fill=""></path> <path style="fill: rgb(215, 222, 237); --darkreader-inline-fill: #c0d1e3;" d="M306.462,512H121.082c-7.313,0-13.241-5.929-13.241-13.241v-13.241h211.862v13.241 C319.703,506.071,313.774,512,306.462,512z" data-darkreader-inline-fill=""></path> <path style="fill: rgb(199, 207, 226); --darkreader-inline-fill: #b6c7d9;" d="M213.772,498.759v-13.241H107.841v13.241c0,7.313,5.929,13.241,13.241,13.241h105.931 C219.7,512,213.772,506.071,213.772,498.759z" data-darkreader-inline-fill=""></path> <path style="fill: rgb(228, 234, 246); --darkreader-inline-fill: #c6d9ec;" d="M28.995,229.517c-5.128,0-9.184,4.439-8.811,9.73c3.369,47.759,21.882,255.097,89.464,255.097 h208.246c67.582,0,86.095-207.338,89.464-255.097c0.373-5.291-3.682-9.73-8.811-9.73H28.995z" data-darkreader-inline-fill=""></path> <path style="fill: rgb(215, 222, 237); --darkreader-inline-fill: #c0d1e3;" d="M153.187,239.246c-0.254-5.291,2.507-9.729,5.998-9.729H28.995c-5.128,0-9.183,4.438-8.81,9.729 c3.368,47.761,21.881,255.098,89.463,255.098h104.449C168.085,494.345,155.481,287.007,153.187,239.246z" data-darkreader-inline-fill=""></path> </g></svg>
