<svg width="90px" height="90px" version="1.1" id="_x35_" xmlns="http://www.w3.org/2000/svg" xmlns:xlink="http://www.w3.org/1999/xlink" viewBox="0 0 512 512" xml:space="preserve" fill="#000000" style="--darkreader-inline-fill: #000000;" data-darkreader-inline-fill=""><g id="SVGRepo_bgCarrier" stroke-width="0"></g><g id="SVGRepo_tracerCarrier" stroke-linecap="round" stroke-linejoin="round"></g><g id="SVGRepo_iconCarrier"> <g> <path style="fill: none; --darkreader-inline-fill: none;" d="M284.549,127.723h0.814v0.321h79.817l6.322-6.322l-87.471,4.701 C284.223,126.851,284.383,127.288,284.549,127.723z" data-darkreader-inline-fill=""></path> <path style="opacity: 0.07; fill: rgb(4, 0, 0); --darkreader-inline-fill: #e7e5e1;" d="M383.655,121.069c0.062-0.004,0.111-0.022,0.173-0.026 c2.141-0.125,4.124-0.447,5.983-0.905c0.638-0.158,1.19-0.397,1.795-0.592c1.216-0.39,2.394-0.81,3.464-1.341 c0.61-0.302,1.154-0.652,1.715-0.997c0.922-0.567,1.785-1.171,2.572-1.845c0.489-0.42,0.949-0.85,1.384-1.308 c0.706-0.744,1.316-1.541,1.876-2.379c0.33-0.494,0.676-0.97,0.953-1.495c0.519-0.979,0.894-2.028,1.225-3.104 c0.145-0.471,0.352-0.908,0.46-1.396c0.353-1.598,0.536-3.269,0.479-5.024c-0.006-0.199-0.072-0.413-0.084-0.614 c-0.082-1.398-0.234-2.82-0.585-4.293c-0.02,0.045-0.059,0.078-0.079,0.123c-0.431-1.857-1.09-3.762-1.937-5.7l-31.549,31.549 L383.655,121.069z" data-darkreader-inline-fill=""></path> <g> <g> <path style="fill: rgb(255, 255, 255); --darkreader-inline-fill: #e8e6e3;" d="M448.424,198.784v293.948c0,10.577-8.609,19.268-19.268,19.268H45.261 c-10.659,0-19.268-8.691-19.268-19.268V198.784c0-10.577,8.609-19.269,19.268-19.269h383.895 C439.815,179.515,448.424,188.206,448.424,198.784z" data-darkreader-inline-fill=""></path> <path style="opacity: 0.1; fill: rgb(6, 21, 8); --darkreader-inline-fill: #dfddd9;" d="M448.424,198.784v98.885H25.992v-98.885c0-10.577,8.609-19.269,19.268-19.269h383.895 C439.815,179.515,448.424,188.206,448.424,198.784z" data-darkreader-inline-fill=""></path> <path style="fill: rgb(255, 255, 255); --darkreader-inline-fill: #e8e6e3;" d="M474.416,157.623v73.221c0,2.788-0.41,5.493-1.147,8.117 c-3.198,11.233-12.955,19.761-24.844,21.237c-1.148,0.164-2.378,0.246-3.608,0.246H29.6c-1.23,0-2.46-0.082-3.607-0.246 C11.397,258.393,0,245.848,0,230.843v-73.221c0-16.235,13.283-29.6,29.6-29.6h415.217 C461.133,128.023,474.416,141.388,474.416,157.623z" data-darkreader-inline-fill=""></path> <linearGradient id="SVGID_1_" gradientUnits="userSpaceOnUse" x1="188.4222" y1="135.2383" x2="285.9946" y2="135.2383"> <stop offset="0.0338" style="stop-color: rgb(34, 159, 176); --darkreader-inline-stopcolor: #59cfdf;" data-darkreader-inline-stopcolor=""></stop> <stop offset="0.9903" style="stop-color: rgb(77, 192, 226); --darkreader-inline-stopcolor: #57c3e4;" data-darkreader-inline-stopcolor=""></stop> </linearGradient> <path style="fill:url(#SVGID_1_);" d="M285.995,135.239c0,1.721-0.164,3.361-0.656,4.919 c-3.608,15.087-23.778,26.566-48.13,26.566c-24.352,0-44.523-11.479-48.13-26.566c-0.492-1.558-0.656-3.198-0.656-4.919 c0-1.722,0.164-3.362,0.656-4.92c0.164-0.82,0.328-1.558,0.656-2.296c0-0.164,0.082-0.246,0.164-0.328 c0.082-0.41,0.246-0.82,0.492-1.23c2.132-4.838,5.985-9.183,11.151-12.627c5.985-4.181,13.611-7.297,22.302-8.855 c4.182-0.82,8.691-1.23,13.365-1.23c4.674,0,9.183,0.41,13.365,1.23c8.691,1.558,16.317,4.674,22.303,8.855 c5.166,3.444,9.019,7.789,11.151,12.627c0.246,0.41,0.41,0.82,0.492,1.23c0.082,0.082,0.164,0.164,0.164,0.328 c0.328,0.738,0.492,1.476,0.656,2.296C285.831,131.877,285.995,133.516,285.995,135.239z"></path> <rect x="189.054" y="259.145" style="fill: rgb(34, 161, 163); --darkreader-inline-fill: #63dcde;" width="96.309" height="252.643" data-darkreader-inline-fill=""></rect> <rect x="189.078" y="127.695" style="fill: rgb(78, 190, 198); --darkreader-inline-fill: #5dc3cb;" width="96.261" height="132.748" data-darkreader-inline-fill=""></rect> <g> <g> <linearGradient id="SVGID_2_" gradientUnits="userSpaceOnUse" x1="68.6858" y1="63.7493" x2="228.107" y2="63.7493"> <stop offset="0.0338" style="stop-color: rgb(88, 192, 208); --darkreader-inline-stopcolor: #62c4d3;" data-darkreader-inline-stopcolor=""></stop> <stop offset="0.9903" style="stop-color: rgb(45, 175, 196); --darkreader-inline-stopcolor: #4cc3d6;" data-darkreader-inline-stopcolor=""></stop> </linearGradient> <path style="fill:url(#SVGID_2_);" d="M228.107,116.298c0,2.542-0.82,4.755-2.46,6.559c-0.246,0.328-0.656,0.656-0.984,0.902 c-3.198,2.706-8.446,4.018-15.579,3.69l-18.694-0.984l-99.623-5.412c-7.79-0.41-13.775-3.116-17.547-7.379 c-0.82-0.984-1.558-1.968-2.213-3.034c-1.968-3.444-2.706-7.544-2.132-12.053c0-0.41,0.082-0.82,0.246-1.312 c0-0.492,0.082-0.984,0.328-1.476c0.492-2.378,1.394-4.756,2.624-7.215l38.291-74.697c8.609-16.891,25.418-18.612,37.307-3.853 l74.286,92.407c0.738,0.902,1.312,1.722,1.886,2.542c0.82,1.148,1.476,2.213,1.968,3.279c0.41,0.738,0.738,1.476,0.984,2.132 c0.328,0.738,0.574,1.476,0.738,2.132c0.164,0.656,0.328,1.312,0.41,1.968C228.025,115.068,228.107,115.724,228.107,116.298z"></path> <path style="opacity: 0.07; fill: rgb(6, 21, 8); --darkreader-inline-fill: #dfddd9;" d="M228.107,116.298c0,2.542-0.82,4.755-2.46,6.559 c-0.246,0.328-0.656,0.656-0.984,0.902c-3.198,2.706-8.446,4.018-15.579,3.69l-18.694-0.984l-99.623-5.412 c-7.79-0.41-13.775-3.116-17.547-7.379c-0.82-0.984-1.558-1.968-2.213-3.034c-1.968-3.444-2.706-7.544-2.132-12.053 c0-0.41,0.082-0.82,0.246-1.312c0-0.492,0.082-0.984,0.246-1.558l0.082,0.082c2.952,6.805,10.167,11.479,20.498,11.971 l111.594,6.067l6.723,0.328c8.937,0.492,15.005-1.804,17.547-5.904c0.41,0.738,0.738,1.476,0.984,2.132 c0.328,0.738,0.574,1.476,0.738,2.132c0.164,0.656,0.328,1.312,0.41,1.968C228.025,115.068,228.107,115.724,228.107,116.298z" data-darkreader-inline-fill=""></path> </g> <g> <linearGradient id="SVGID_3_" gradientUnits="userSpaceOnUse" x1="246.3099" y1="63.7815" x2="405.731" y2="63.7815"> <stop offset="0.0338" style="stop-color: rgb(88, 192, 208); --darkreader-inline-stopcolor: #62c4d3;" data-darkreader-inline-stopcolor=""></stop> <stop offset="0.9903" style="stop-color: rgb(45, 175, 196); --darkreader-inline-stopcolor: #4cc3d6;" data-darkreader-inline-stopcolor=""></stop> </linearGradient> <path style="fill:url(#SVGID_3_);" d="M403.41,110.64c-0.656,1.066-1.394,2.05-2.214,3.034 c-3.771,4.263-9.757,6.969-17.546,7.379l-99.623,5.412l-18.695,0.984c-7.133,0.328-12.381-0.984-15.579-3.69 c-0.328-0.246-0.738-0.574-0.984-0.902c-1.64-1.804-2.46-4.018-2.46-6.559c0-0.574,0.082-1.23,0.164-1.804 c0.082-0.656,0.246-1.312,0.41-1.968c0.164-0.656,0.41-1.394,0.738-2.132c0.246-0.656,0.574-1.394,0.984-2.132 c0.492-1.066,1.148-2.132,1.968-3.279c0.574-0.82,1.148-1.64,1.886-2.542l74.286-92.407c6.641-8.281,14.841-11.315,22.302-9.43 c5.822,1.394,11.233,5.822,15.005,13.283l1.804,3.526l36.487,71.171c1.23,2.46,2.132,4.837,2.624,7.215 c0.246,0.492,0.328,0.984,0.328,1.476c0.164,0.492,0.246,0.902,0.246,1.312C406.116,103.097,405.378,107.196,403.41,110.64z"></path> <path style="opacity: 0.07; fill: rgb(6, 21, 8); --darkreader-inline-fill: #dfddd9;" d="M265.291,127.429l118.363-6.363c16.167-0.867,24.668-11.666,21.413-25.316 c-2.986,6.851-10.196,11.493-20.559,12.051l-118.357,6.356c-8.969,0.481-14.985-1.791-17.567-5.888 C242.421,120.045,248.957,128.309,265.291,127.429z" data-darkreader-inline-fill=""></path> </g> </g> </g> <path style="opacity: 0.03; fill: rgb(6, 21, 8); --darkreader-inline-fill: #dfddd9;" d="M474.416,157.623v73.221c0,2.788-0.41,5.493-1.147,8.117 c-3.198,11.151-12.955,19.597-24.844,21.072v232.699c0,10.577-8.609,19.268-19.268,19.268H45.261 c-10.659,0-19.268-8.691-19.268-19.268v-25.5l163.085-163.086l6.478-6.477l37.225-37.225l80.928-80.928l51.492-51.492h79.616 C461.133,128.023,474.416,141.388,474.416,157.623z" data-darkreader-inline-fill=""></path> </g> </g> </g></svg>
