<?xml version="1.0" encoding="utf-8"?>
<svg viewBox="0 0 320 400" width="320px" height="320px" xmlns="http://www.w3.org/2000/svg">
  <desc>wichtel gopher</desc>
  <title>gopther</title>
  <ellipse style="paint-order: stroke; fill: rgb(134, 212, 222); stroke-width: 10px; stroke: rgb(255, 255, 255);" cx="100.881" cy="60.529" rx="29.981" ry="34.657"/>
  <path style="paint-order: stroke; fill: rgb(134, 212, 222); stroke: rgb(255, 255, 255); stroke-width: 14px;" d="M 307.485 228.556 C 242.759 229.545 171.081 228.621 80.966 228.071 C 83.847 193.322 85.307 158.309 81.116 132.138 C 56.719 6.955 243.154 -24.897 288.644 78.435 C 308.35 123.195 311.328 176.354 307.485 228.556 Z"/>
  <ellipse style="fill: rgb(255, 255, 255); paint-order: stroke; stroke-width: 6px; stroke: rgb(255, 255, 255);" cx="128.673" cy="96.792" rx="33.576" ry="31.428"/>
  <ellipse style="fill: rgb(255, 255, 255); paint-order: stroke; stroke-width: 6px; stroke: rgb(255, 255, 255);" cx="214.759" cy="97.916" rx="37.804" ry="35.406"/>
  <path style="fill: rgb(255, 255, 255); paint-order: stroke; stroke-width: 5px; stroke: rgb(255, 255, 255);" d="M 148.684 141.007 C 148.49 141.559 147.79 149.994 147.79 151.006 C 147.79 151.208 147.714 156.289 147.714 157.601 C 147.714 158.903 147.333 161.579 148.76 166.323 C 149.638 169.254 149.541 169.632 150.699 171.43 C 152.219 173.787 157.921 174.394 160.17 171.217 C 161.897 168.78 162.395 162.147 162.409 161.963 C 162.825 156.15 162.781 149.654 162.781 147.707 C 162.781 147.525 161.915 141.579 161.364 140.794 C 160.265 139.226 148.76 139.503 148.76 141.007"/>
  <g>
    <g>
      <g/>
    </g>
  </g>
  <g transform="matrix(0.78393, 0, 0, 0.78393, -10.950076, 16.61503)" style="">
    <g>
      <ellipse style="stroke: rgb(0, 0, 0); paint-order: stroke; stroke-width: 12.6479px;" cx="20.34" cy="90.046" rx="12.335" ry="12.678" transform="matrix(0.999709, 0.024132, -0.024132, 0.999709, 260.816685, 18.074693)"/>
      <ellipse style="stroke: rgb(140, 37, 37); fill: rgb(255, 255, 255); stroke-opacity: 0; paint-order: stroke; stroke-width: 12.6479px;" cx="8.84" cy="101.025" rx="4.968" ry="5.311" transform="matrix(0.999709, 0.024132, -0.024132, 0.999709, 261.361208, 15.799017)"/>
    </g>
  </g>
  <g transform="matrix(0.78393, 0, 0, 0.78393, 8.725545, 25.013519)" style="">
    <ellipse style="stroke: rgb(0, 0, 0); paint-order: stroke; stroke-width: 12.6479px;" cx="20.34" cy="90.046" rx="12.335" ry="12.678" transform="matrix(0.999709, 0.024132, -0.024132, 0.999709, 141.444828, 7.07577)"/>
    <ellipse style="stroke: rgb(140, 37, 37); fill: rgb(255, 255, 255); stroke-opacity: 0; paint-order: stroke; stroke-width: 12.6479px;" cx="8.84" cy="101.025" rx="4.968" ry="5.311" transform="matrix(0.999709, 0.024132, -0.024132, 0.999709, 142.728197, 5.908423)"/>
  </g>
  <ellipse style="stroke-opacity: 0; stroke: rgb(149, 223, 244); fill: rgb(180, 226, 231);" cx="224.885" cy="145.597" rx="15.177" ry="7.306"/>
  <path style="paint-order: stroke; fill: rgb(134, 212, 222); stroke-width: 10px; stroke: rgb(255, 255, 255); transform-box: fill-box; transform-origin: 50% 50%;" d="M 258.625 45.888 C 261.63 7.785 319.563 17.777 308.64 63.22 C 302.35 84.436 277.428 88.685 277.433 82.168" transform="matrix(0.999709, 0.024132, -0.024132, 0.999709, 0, 0)"/>
  <path style="fill: rgb(250, 220, 164); stroke-width: 3px; stroke: rgb(255, 255, 255); transform-box: fill-box; transform-origin: 50% 50%;" d="M 101.525 215.191 C 93.656 214.94 73.287 199.884 89.071 195.318 C 90.541 195.547 75.62 188.68 93.551 184.875 C 109.477 184.279 113.968 209.457 111.794 216.256 L 101.525 215.191 Z" transform="matrix(-1, 0, 0, -1, -0.000009, 0.000001)"/>
  <path style="fill: rgb(255, 255, 255); paint-order: stroke; stroke-width: 5px; stroke: rgb(255, 255, 255);" d="M 170.875 142.837 C 170.683 143.389 169.981 149.106 169.981 150.119 C 169.981 150.321 169.574 155.603 169.574 156.913 C 169.574 158.215 169.016 162.155 170.093 167.034 C 170.805 170.264 171.032 171.022 173.541 173.821 C 175.459 175.959 180.055 173.415 182.306 170.24 C 184.033 167.804 184.337 162.567 184.351 162.383 C 184.767 156.571 184.973 151.484 184.973 149.537 C 184.973 149.352 184.108 143.409 183.556 142.621 C 182.458 141.056 170.951 141.331 170.951 142.834"/>
  <path d="M 166.934 147.462 C 150.328 148.91 134.3 152.08 138.328 142.166 C 142.356 132.251 149.421 132.166 156.48 132.318 C 159.997 132.393 168.694 132.377 172.153 132.017 C 175.135 131.706 181.798 131.098 193.474 139.996 C 205.149 148.892 189.066 155.15 166.934 147.462 Z" style="paint-order: stroke; stroke-width: 6px; fill: rgb(250, 220, 164); stroke: rgb(255, 255, 255); transform-origin: 170.802px 144.425px;"/>
  <ellipse style="stroke: rgb(0, 0, 0); paint-order: stroke; stroke-width: 6px;" cx="163.198" cy="131.033" rx="10.873" ry="5.704"/>
  <path d="M 285.681 57.217 C 285.681 63.459 281.781 68.52 276.972 68.52 C 276.658 68.52 276.35 68.498 276.046 68.456 C 276.021 63.083 272.82 58.48 268.278 56.537 C 268.548 50.61 272.336 45.914 276.972 45.914 C 281.781 45.914 285.681 50.974 285.681 57.217 Z" style="stroke: rgb(255, 255, 255); fill: rgb(255, 255, 255);"/>
  <ellipse style="stroke-opacity: 0; stroke: rgb(149, 223, 244); fill: rgb(180, 226, 231);" cx="117.797" cy="142.271" rx="14.066" ry="7.306"/>
  <g id="SVGRepo_iconCarrier" transform="matrix(0.302047, 0.075309, -0.057976, 0.232529, -150.718155, -64.571762)" style="transform-origin: 237.208px 256px;">
    <g>
      <path style="fill: none; --darkreader-inline-fill: none;" d="M284.549,127.723h0.814v0.321h79.817l6.322-6.322l-87.471,4.701 C284.223,126.851,284.383,127.288,284.549,127.723z" data-darkreader-inline-fill=""/>
      <path style="opacity: 0.07; fill: rgb(4, 0, 0); --darkreader-inline-fill: #e7e5e1;" d="M383.655,121.069c0.062-0.004,0.111-0.022,0.173-0.026 c2.141-0.125,4.124-0.447,5.983-0.905c0.638-0.158,1.19-0.397,1.795-0.592c1.216-0.39,2.394-0.81,3.464-1.341 c0.61-0.302,1.154-0.652,1.715-0.997c0.922-0.567,1.785-1.171,2.572-1.845c0.489-0.42,0.949-0.85,1.384-1.308 c0.706-0.744,1.316-1.541,1.876-2.379c0.33-0.494,0.676-0.97,0.953-1.495c0.519-0.979,0.894-2.028,1.225-3.104 c0.145-0.471,0.352-0.908,0.46-1.396c0.353-1.598,0.536-3.269,0.479-5.024c-0.006-0.199-0.072-0.413-0.084-0.614 c-0.082-1.398-0.234-2.82-0.585-4.293c-0.02,0.045-0.059,0.078-0.079,0.123c-0.431-1.857-1.09-3.762-1.937-5.7l-31.549,31.549 L383.655,121.069z" data-darkreader-inline-fill=""/>
      <g>
        <g>
          <path style="--darkreader-inline-fill: #e8e6e3; fill: rgb(184, 207, 236);" d="M448.424,198.784v293.948c0,10.577-8.609,19.268-19.268,19.268H45.261 c-10.659,0-19.268-8.691-19.268-19.268V198.784c0-10.577,8.609-19.269,19.268-19.269h383.895 C439.815,179.515,448.424,188.206,448.424,198.784z" data-darkreader-inline-fill=""/>
          <path style="opacity: 0.1; fill: rgb(6, 21, 8); --darkreader-inline-fill: #dfddd9;" d="M448.424,198.784v98.885H25.992v-98.885c0-10.577,8.609-19.269,19.268-19.269h383.895 C439.815,179.515,448.424,188.206,448.424,198.784z" data-darkreader-inline-fill=""/>
          <path style="--darkreader-inline-fill: #e8e6e3; fill: rgb(187, 238, 228);" d="M474.416,157.623v73.221c0,2.788-0.41,5.493-1.147,8.117 c-3.198,11.233-12.955,19.761-24.844,21.237c-1.148,0.164-2.378,0.246-3.608,0.246H29.6c-1.23,0-2.46-0.082-3.607-0.246 C11.397,258.393,0,245.848,0,230.843v-73.221c0-16.235,13.283-29.6,29.6-29.6h415.217 C461.133,128.023,474.416,141.388,474.416,157.623z" data-darkreader-inline-fill=""/>
          <linearGradient id="SVGID_1_" gradientUnits="userSpaceOnUse" x1="188.4222" y1="135.2383" x2="285.9946" y2="135.2383">
            <stop offset="0.0338" style="stop-color: rgb(34, 159, 176); --darkreader-inline-stopcolor: #59cfdf;" data-darkreader-inline-stopcolor=""/>
            <stop offset="0.9903" style="stop-color: rgb(77, 192, 226); --darkreader-inline-stopcolor: #57c3e4;" data-darkreader-inline-stopcolor=""/>
          </linearGradient>
          <path style="fill:url(#SVGID_1_);" d="M285.995,135.239c0,1.721-0.164,3.361-0.656,4.919 c-3.608,15.087-23.778,26.566-48.13,26.566c-24.352,0-44.523-11.479-48.13-26.566c-0.492-1.558-0.656-3.198-0.656-4.919 c0-1.722,0.164-3.362,0.656-4.92c0.164-0.82,0.328-1.558,0.656-2.296c0-0.164,0.082-0.246,0.164-0.328 c0.082-0.41,0.246-0.82,0.492-1.23c2.132-4.838,5.985-9.183,11.151-12.627c5.985-4.181,13.611-7.297,22.302-8.855 c4.182-0.82,8.691-1.23,13.365-1.23c4.674,0,9.183,0.41,13.365,1.23c8.691,1.558,16.317,4.674,22.303,8.855 c5.166,3.444,9.019,7.789,11.151,12.627c0.246,0.41,0.41,0.82,0.492,1.23c0.082,0.082,0.164,0.164,0.164,0.328 c0.328,0.738,0.492,1.476,0.656,2.296C285.831,131.877,285.995,133.516,285.995,135.239z"/>
          <rect x="189.054" y="259.145" style="fill: rgb(34, 161, 163); --darkreader-inline-fill: #63dcde;" width="96.309" height="252.643" data-darkreader-inline-fill=""/>
          <rect x="189.078" y="127.695" style="fill: rgb(78, 190, 198); --darkreader-inline-fill: #5dc3cb;" width="96.261" height="132.748" data-darkreader-inline-fill=""/>
          <g>
            <g>
              <linearGradient id="SVGID_2_" gradientUnits="userSpaceOnUse" x1="68.6858" y1="63.7493" x2="228.107" y2="63.7493">
                <stop offset="0.0338" style="stop-color: rgb(88, 192, 208); --darkreader-inline-stopcolor: #62c4d3;" data-darkreader-inline-stopcolor=""/>
                <stop offset="0.9903" style="stop-color: rgb(45, 175, 196); --darkreader-inline-stopcolor: #4cc3d6;" data-darkreader-inline-stopcolor=""/>
              </linearGradient>
              <path style="fill:url(#SVGID_2_);" d="M228.107,116.298c0,2.542-0.82,4.755-2.46,6.559c-0.246,0.328-0.656,0.656-0.984,0.902 c-3.198,2.706-8.446,4.018-15.579,3.69l-18.694-0.984l-99.623-5.412c-7.79-0.41-13.775-3.116-17.547-7.379 c-0.82-0.984-1.558-1.968-2.213-3.034c-1.968-3.444-2.706-7.544-2.132-12.053c0-0.41,0.082-0.82,0.246-1.312 c0-0.492,0.082-0.984,0.328-1.476c0.492-2.378,1.394-4.756,2.624-7.215l38.291-74.697c8.609-16.891,25.418-18.612,37.307-3.853 l74.286,92.407c0.738,0.902,1.312,1.722,1.886,2.542c0.82,1.148,1.476,2.213,1.968,3.279c0.41,0.738,0.738,1.476,0.984,2.132 c0.328,0.738,0.574,1.476,0.738,2.132c0.164,0.656,0.328,1.312,0.41,1.968C228.025,115.068,228.107,115.724,228.107,116.298z"/>
              <path style="opacity: 0.07; fill: rgb(6, 21, 8); --darkreader-inline-fill: #dfddd9;" d="M228.107,116.298c0,2.542-0.82,4.755-2.46,6.559 c-0.246,0.328-0.656,0.656-0.984,0.902c-3.198,2.706-8.446,4.018-15.579,3.69l-18.694-0.984l-99.623-5.412 c-7.79-0.41-13.775-3.116-17.547-7.379c-0.82-0.984-1.558-1.968-2.213-3.034c-1.968-3.444-2.706-7.544-2.132-12.053 c0-0.41,0.082-0.82,0.246-1.312c0-0.492,0.082-0.984,0.246-1.558l0.082,0.082c2.952,6.805,10.167,11.479,20.498,11.971 l111.594,6.067l6.723,0.328c8.937,0.492,15.005-1.804,17.547-5.904c0.41,0.738,0.738,1.476,0.984,2.132 c0.328,0.738,0.574,1.476,0.738,2.132c0.164,0.656,0.328,1.312,0.41,1.968C228.025,115.068,228.107,115.724,228.107,116.298z" data-darkreader-inline-fill=""/>
            </g>
            <g>
              <linearGradient id="SVGID_3_" gradientUnits="userSpaceOnUse" x1="246.3099" y1="63.7815" x2="405.731" y2="63.7815">
                <stop offset="0.0338" style="stop-color: rgb(88, 192, 208); --darkreader-inline-stopcolor: #62c4d3;" data-darkreader-inline-stopcolor=""/>
                <stop offset="0.9903" style="stop-color: rgb(45, 175, 196); --darkreader-inline-stopcolor: #4cc3d6;" data-darkreader-inline-stopcolor=""/>
              </linearGradient>
              <path style="fill:url(#SVGID_3_);" d="M403.41,110.64c-0.656,1.066-1.394,2.05-2.214,3.034 c-3.771,4.263-9.757,6.969-17.546,7.379l-99.623,5.412l-18.695,0.984c-7.133,0.328-12.381-0.984-15.579-3.69 c-0.328-0.246-0.738-0.574-0.984-0.902c-1.64-1.804-2.46-4.018-2.46-6.559c0-0.574,0.082-1.23,0.164-1.804 c0.082-0.656,0.246-1.312,0.41-1.968c0.164-0.656,0.41-1.394,0.738-2.132c0.246-0.656,0.574-1.394,0.984-2.132 c0.492-1.066,1.148-2.132,1.968-3.279c0.574-0.82,1.148-1.64,1.886-2.542l74.286-92.407c6.641-8.281,14.841-11.315,22.302-9.43 c5.822,1.394,11.233,5.822,15.005,13.283l1.804,3.526l36.487,71.171c1.23,2.46,2.132,4.837,2.624,7.215 c0.246,0.492,0.328,0.984,0.328,1.476c0.164,0.492,0.246,0.902,0.246,1.312C406.116,103.097,405.378,107.196,403.41,110.64z"/>
              <path style="opacity: 0.07; fill: rgb(6, 21, 8); --darkreader-inline-fill: #dfddd9;" d="M265.291,127.429l118.363-6.363c16.167-0.867,24.668-11.666,21.413-25.316 c-2.986,6.851-10.196,11.493-20.559,12.051l-118.357,6.356c-8.969,0.481-14.985-1.791-17.567-5.888 C242.421,120.045,248.957,128.309,265.291,127.429z" data-darkreader-inline-fill=""/>
            </g>
          </g>
        </g>
        <path style="opacity: 0.03; --darkreader-inline-fill: #dfddd9; fill: rgb(53, 168, 68);" d="M474.416,157.623v73.221c0,2.788-0.41,5.493-1.147,8.117 c-3.198,11.151-12.955,19.597-24.844,21.072v232.699c0,10.577-8.609,19.268-19.268,19.268H45.261 c-10.659,0-19.268-8.691-19.268-19.268v-25.5l163.085-163.086l6.478-6.477l37.225-37.225l80.928-80.928l51.492-51.492h79.616 C461.133,128.023,474.416,141.388,474.416,157.623z" data-darkreader-inline-fill=""/>
      </g>
    </g>
  </g>
  <path style="fill: rgb(250, 220, 164); stroke: rgb(255, 255, 255); stroke-width: 3px;" d="M 171.775 192.607 C 157.141 192.032 130.382 207.56 153.844 211.806 C 156.031 211.595 133.852 217.981 160.507 221.519 C 184.179 222.074 206.549 199.17 198.89 197.151 C 181.471 192.56 181.333 193.13 171.775 192.607 Z"/>
  <g id="SVGRepo_bgCarrier" stroke-width="0" transform="matrix(0.397094, 0, 0, 0.3057, -20.025568, 148.326843)" style=""/>
  <g id="SVGRepo_tracerCarrier" stroke-linecap="round" stroke-linejoin="round" transform="matrix(0.397094, 0, 0, 0.3057, -20.025568, 148.326843)" style=""/>
</svg>