<?xml version="1.0" encoding="utf-8"?>
<svg viewBox="0 0 500 500" xmlns="http://www.w3.org/2000/svg">
  <ellipse style="paint-order: stroke; fill: rgb(134, 212, 222); stroke-width: 10px; stroke: rgb(255, 255, 255);" cx="136.765" cy="64.456" rx="38.245" ry="44.208"/>
  <path style="paint-order: stroke; fill: rgb(134, 212, 222); stroke: rgb(255, 255, 255); stroke-width: 14px;" d="M 107.125 447.447 C 82.722 440.907 126.919 251.762 111.552 155.802 C 80.43 -3.885 318.251 -44.515 376.28 87.298 C 423.137 193.733 395.85 337.396 376.256 440.983 C 367.131 489.224 330.221 502.553 257.083 492.431 C 176.495 478.178 146.599 474.604 107.125 447.447 Z"/>
  <ellipse style="fill: rgb(255, 255, 255); paint-order: stroke; stroke-width: 6px; stroke: rgb(255, 255, 255);" cx="172.217" cy="110.713" rx="42.831" ry="40.09"/>
  <ellipse style="fill: rgb(255, 255, 255); paint-order: stroke; stroke-width: 6px; stroke: rgb(255, 255, 255);" cx="282.029" cy="112.148" rx="48.225" ry="45.164"/>
  <path style="fill: rgb(255, 255, 255); paint-order: stroke; stroke-width: 5px; stroke: rgb(255, 255, 255);" d="M 197.743 167.117 C 197.495 167.819 196.601 178.58 196.601 179.87 C 196.601 180.129 196.505 186.609 196.505 188.283 C 196.505 189.944 196.019 193.357 197.839 199.41 C 198.96 203.147 198.835 203.63 200.312 205.923 C 202.253 208.931 209.526 209.704 212.395 205.652 C 214.598 202.544 215.232 194.083 215.25 193.848 C 215.781 186.433 215.725 178.146 215.725 175.662 C 215.725 175.429 214.62 167.845 213.918 166.844 C 212.515 164.844 197.839 165.197 197.839 167.115"/>
  <g>
    <g>
      <g/>
    </g>
  </g>
  <g transform="matrix(1, 0, 0, 1, -5.89099, 8.438207)">
    <g>
      <ellipse style="stroke: rgb(0, 0, 0); paint-order: stroke; stroke-width: 12.6479px;" cx="20.34" cy="90.046" rx="12.335" ry="12.678" transform="matrix(0.999709, 0.024132, -0.024132, 0.999709, 260.816685, 18.074693)"/>
      <ellipse style="stroke: rgb(140, 37, 37); fill: rgb(255, 255, 255); stroke-opacity: 0; paint-order: stroke; stroke-width: 12.6479px;" cx="8.84" cy="101.025" rx="4.968" ry="5.311" transform="matrix(0.999709, 0.024132, -0.024132, 0.999709, 261.361208, 15.799017)"/>
    </g>
  </g>
  <g transform="matrix(1, 0, 0, 1, 19.207693, 19.151506)">
    <ellipse style="stroke: rgb(0, 0, 0); paint-order: stroke; stroke-width: 12.6479px;" cx="20.34" cy="90.046" rx="12.335" ry="12.678" transform="matrix(0.999709, 0.024132, -0.024132, 0.999709, 141.444828, 7.07577)"/>
    <ellipse style="stroke: rgb(140, 37, 37); fill: rgb(255, 255, 255); stroke-opacity: 0; paint-order: stroke; stroke-width: 12.6479px;" cx="8.84" cy="101.025" rx="4.968" ry="5.311" transform="matrix(0.999709, 0.024132, -0.024132, 0.999709, 142.728197, 5.908423)"/>
  </g>
  <ellipse style="stroke-opacity: 0; stroke: rgb(149, 223, 244); fill: rgb(180, 226, 231);" cx="294.946" cy="172.97" rx="19.36" ry="9.32"/>
  <path style="paint-order: stroke; fill: rgb(134, 212, 222); stroke-width: 10px; transform-box: fill-box; transform-origin: 50% 50%; stroke: rgb(255, 255, 255);" d="M 337.987 45.78 C 341.82 -2.826 415.72 9.92 401.787 67.888 C 393.763 94.953 361.972 100.373 361.978 92.059" transform="matrix(0.999709, 0.024132, -0.024132, 0.999709, 0, 0)"/>
  <path style="fill: rgb(250, 220, 164); stroke-width: 3px; stroke: rgb(255, 255, 255); transform-box: fill-box; transform-origin: 50% 50%;" d="M 137.585 261.746 C 127.547 261.426 101.564 242.22 121.698 236.396 C 123.574 236.688 104.541 227.929 127.414 223.075 C 147.729 222.314 153.458 254.433 150.684 263.104 L 137.585 261.746 Z" transform="matrix(-1, 0, 0, -1, 0.000003, 0.000002)"/>
  <path style="fill: rgb(250, 220, 164); stroke: rgb(255, 255, 255); stroke-width: 3px;" d="M 245.377 232.332 C 226.71 231.598 192.576 251.406 222.505 256.822 C 225.295 256.552 197.003 264.698 231.004 269.213 C 261.201 269.92 289.737 240.704 279.967 238.128 C 257.747 232.272 257.569 232.999 245.377 232.332 Z"/>
  <path style="fill: rgb(255, 255, 255); paint-order: stroke; stroke-width: 5px; stroke: rgb(255, 255, 255);" d="M 226.05 169.449 C 225.805 170.153 224.909 177.447 224.909 178.739 C 224.909 178.996 224.39 185.734 224.39 187.406 C 224.39 189.067 223.678 194.093 225.052 200.316 C 225.961 204.437 226.249 205.404 229.451 208.974 C 231.897 211.701 237.76 208.456 240.632 204.406 C 242.835 201.299 243.223 194.619 243.24 194.383 C 243.771 186.969 244.034 180.48 244.034 177.997 C 244.034 177.76 242.93 170.179 242.226 169.175 C 240.825 167.178 226.147 167.529 226.147 169.446"/>
  <path d="M 221.023 175.349 C 199.839 177.197 179.395 181.24 184.532 168.593 C 189.671 155.946 198.684 155.838 207.687 156.031 C 212.174 156.127 223.268 156.108 227.681 155.648 C 231.483 155.251 239.984 154.476 254.877 165.825 C 269.77 177.174 249.254 185.156 221.023 175.349 Z" style="paint-order: stroke; stroke-width: 6px; fill: rgb(250, 220, 164); transform-origin: 225.957px 171.475px; stroke: rgb(255, 255, 255);"/>
  <ellipse style="stroke: rgb(0, 0, 0); paint-order: stroke; stroke-width: 6px;" cx="216.257" cy="154.392" rx="13.871" ry="7.276"/>
  <path d="M 372.499 60.23 C 372.499 68.193 367.525 74.649 361.389 74.649 C 360.99 74.649 360.596 74.622 360.208 74.568 C 360.176 67.713 356.094 61.843 350.299 59.364 C 350.644 51.804 355.477 45.811 361.389 45.811 C 367.525 45.811 372.499 52.267 372.499 60.23 Z" style="stroke: rgb(255, 255, 255); fill: rgb(255, 255, 255);"/>
  <ellipse style="stroke-opacity: 0; stroke: rgb(149, 223, 244); fill: rgb(180, 226, 231);" cx="158.342" cy="168.727" rx="17.942" ry="9.32"/>
</svg>