<svg height="30px" width="30px" version="1.1" id="_x35_" xmlns="http://www.w3.org/2000/svg" xmlns:xlink="http://www.w3.org/1999/xlink" viewBox="0 0 512 512" xml:space="preserve" fill="#000000" style="--darkreader-inline-fill: #000000;" data-darkreader-inline-fill=""><g id="SVGRepo_bgCarrier" stroke-width="0"></g><g id="SVGRepo_tracerCarrier" stroke-linecap="round" stroke-linejoin="round"></g><g id="SVGRepo_iconCarrier"> <g> <polygon style="fill: rgb(243, 228, 162); --darkreader-inline-fill: #f1df91;" points="168.184,364.318 187.512,364.318 187.512,403.044 165.334,425.223 165.334,449.002 182.854,449.002 182.854,467.565 156.017,492.734 148.508,499.756 136.063,511.367 135.368,511.992 94.069,511.992 94.069,226.03 136.063,223.666 169.088,221.859 169.088,316.971 192.31,340.193 " data-darkreader-inline-fill=""></polygon> <path style="opacity: 0.1; fill: rgb(4, 0, 0); --darkreader-inline-fill: #e7e5e1;" d="M169.088,221.859v60.28c-10.568,2.642-21.623,4.102-33.025,4.102 c-14.67,0-28.784-2.364-41.994-6.674V226.03l41.994-2.364L169.088,221.859z" data-darkreader-inline-fill=""></path> <path style="fill: rgb(243, 228, 162); --darkreader-inline-fill: #f1df91;" d="M261.211,82.597c-13.767-32.121-39.491-57.916-71.682-71.682C173.12,3.893,155.044,0,136.063,0 C60.905,0,0,60.905,0,136.063c0,60.488,39.491,111.729,94.069,129.458c13.21,4.311,27.324,6.605,41.994,6.605 c11.402,0,22.457-1.391,33.025-4.102c0.347,0,0.625-0.07,0.973-0.208c2.642-0.626,5.215-1.391,7.787-2.225 c1.599-0.487,3.128-1.043,4.728-1.669c0.208-0.07,0.417-0.139,0.556-0.209c1.599-0.556,3.198-1.182,4.797-1.877 c4.311-1.738,8.552-3.754,12.654-5.979c1.599-0.834,3.198-1.808,4.797-2.712c1.599-0.973,3.198-1.947,4.728-2.99 c1.599-0.973,3.129-2.016,4.589-3.129c1.321-0.904,2.572-1.807,3.824-2.781c1.877-1.391,3.685-2.851,5.493-4.38 c2.642-2.295,5.214-4.658,7.718-7.092c1.321-1.252,2.642-2.573,3.824-3.963c1.251-1.321,2.503-2.711,3.685-4.102 c1.251-1.46,2.364-2.851,3.546-4.311c1.182-1.46,2.295-2.92,3.337-4.38c1.113-1.53,2.156-3.059,3.198-4.589 c1.043-1.529,2.016-3.059,2.99-4.658c0.973-1.599,1.877-3.198,2.781-4.797c0.765-1.321,1.46-2.642,2.086-3.963 c0.765-1.391,1.46-2.781,2.086-4.171c0.626-1.251,1.182-2.503,1.738-3.824c3.893-8.969,6.814-18.425,8.691-28.297 c0.348-1.599,0.626-3.268,0.834-4.937c0.348-2.016,0.626-4.102,0.834-6.258c0.07-0.348,0.07-0.626,0.07-0.973 c0.278-2.155,0.417-4.311,0.487-6.466c0.139-2.364,0.209-4.659,0.209-7.022C272.126,117.082,268.233,99.006,261.211,82.597z M136.063,107.836c-19.954,0-36.154-16.13-36.154-36.154c0-19.954,16.2-36.154,36.154-36.154c19.954,0,36.154,16.2,36.154,36.154 C172.217,91.705,156.017,107.836,136.063,107.836z" data-darkreader-inline-fill=""></path> <polygon style="opacity: 0.2; fill: rgb(4, 0, 0); --darkreader-inline-fill: #e7e5e1;" points="131.472,304.002 131.472,511.356 130.792,512 114.004,512 114.004,304.002 " data-darkreader-inline-fill=""></polygon> <polygon style="opacity: 0.2; fill: rgb(4, 0, 0); --darkreader-inline-fill: #e7e5e1;" points="155.983,366.942 155.983,492.73 148.48,499.754 148.48,366.942 " data-darkreader-inline-fill=""></polygon> <path style="opacity: 0.2; fill: rgb(4, 0, 0); --darkreader-inline-fill: #e7e5e1;" d="M272.126,136.063c0,2.364-0.07,4.658-0.209,7.022c-0.07,2.155-0.208,4.311-0.487,6.466 c0,0.347,0,0.625-0.07,0.973c-0.208,2.156-0.486,4.241-0.834,6.258c-0.208,1.669-0.487,3.337-0.834,4.937 c-1.877,9.873-4.797,19.328-8.691,28.297c-0.556,1.321-1.112,2.572-1.738,3.824c-0.625,1.391-1.321,2.781-2.086,4.171 c-0.626,1.321-1.321,2.642-2.086,3.963c-0.904,1.599-1.808,3.198-2.781,4.797c-0.973,1.599-1.947,3.129-2.99,4.658 c-1.043,1.53-2.086,3.059-3.198,4.589c-1.043,1.46-2.155,2.92-3.337,4.38c-1.182,1.46-2.294,2.85-3.546,4.311 c-1.182,1.391-2.433,2.781-3.685,4.102s-2.572,2.712-3.824,3.963c-2.503,2.434-5.076,4.797-7.718,7.092 c-1.807,1.529-3.615,2.99-5.493,4.38c-1.251,0.973-2.503,1.877-3.824,2.781c-1.46,1.113-2.99,2.155-4.589,3.129 c-1.529,1.043-3.128,2.016-4.728,2.99c-1.599,0.904-3.198,1.877-4.797,2.712c-4.102,2.225-8.343,4.241-12.654,5.979 c-1.599,0.696-3.198,1.321-4.797,1.877c-0.139,0.07-0.348,0.139-0.556,0.209c-1.599,0.626-3.129,1.182-4.728,1.669 c-2.572,0.834-5.145,1.599-7.787,2.225c-0.348,0.139-0.626,0.208-0.973,0.278v48.877l23.221,23.222l-24.125,24.126h19.328v38.726 l-22.179,22.179v23.778h17.521v18.564l-26.837,25.169l-7.509,7.022l-12.445,11.611V107.836c19.954,0,36.154-16.13,36.154-36.154 c0-19.954-16.2-36.154-36.154-36.154V0c18.981,0,37.057,3.893,53.466,10.916c32.191,13.766,57.915,39.561,71.682,71.682 C268.233,99.006,272.126,117.082,272.126,136.063z" data-darkreader-inline-fill=""></path> </g> </g></svg>
